<svg width="220" height="37" viewBox="0 0 220 37" fill="none" xmlns="http://www.w3.org/2000/svg">
<g clip-path="url(#clip0_409_4609)">
<path d="M67.6278 28.9922H49.8164V8.02734H67.6278V11.8514H53.6261V16.5756H65.7848V20.4205H53.6261V25.1447H67.6278V28.9922Z" fill="white"/>
<path d="M69.3008 28.9932V8.02832H73.1105L79.3664 23.7045L85.581 8.06994L85.6017 8.02832H89.3908V28.9932H85.5785V18.3534L81.4156 28.8475L81.3537 28.9932H77.3765L77.3146 28.8475L73.1105 18.3117V28.9932H69.3008Z" fill="white"/>
<path d="M95.442 25.1483H106.088V20.4241H94.3233C93.019 20.4241 91.9003 19.6307 91.3822 18.5016C91.1966 18.1036 91.0703 17.625 91.0703 17.1437V11.3113C91.0703 9.49292 92.5421 8.02832 94.3233 8.02832H106.647C108.428 8.02832 109.9 9.49032 109.9 11.3113V13.8191H106.09V11.855H94.8852V16.5792H106.649C107.954 16.5792 109.093 17.3726 109.591 18.5016C109.776 18.9205 109.902 19.3783 109.902 19.8596V25.7128C109.902 27.5104 108.454 28.9724 106.673 28.9958H94.3078C92.5473 28.975 91.0755 27.5104 91.0755 25.7128V23.1842H94.8852V25.1483H95.4445H95.442Z" fill="white"/>
<path d="M124.064 28.9932H120.254V8.02832H124.064V16.5766H135.269V8.02832H139.058V28.9932H135.269V20.4241H124.064V28.9932Z" fill="white"/>
<path d="M159.543 11.3084V25.7098C159.543 27.5074 158.071 28.9928 156.29 28.9928H143.987C142.206 28.9928 140.734 27.5074 140.734 25.7098V11.3084C140.734 9.48999 142.206 8.02539 143.987 8.02539H156.29C158.071 8.02539 159.543 9.48739 159.543 11.3084ZM155.731 11.8521H144.526V25.1453H155.731V11.8521Z" fill="white"/>
<path d="M176.21 19.7139V8.02832H180.02V25.7128C180.02 27.5104 178.548 28.9958 176.767 28.9958H164.464C162.662 28.9958 161.211 27.5104 161.211 25.7128V8.02832H165V25.1483H176.205V19.7139H176.21Z" fill="white"/>
<path d="M186.063 25.1483H196.709V20.4241H184.944C183.64 20.4241 182.521 19.6307 182.003 18.5016C181.818 18.1036 181.691 17.625 181.691 17.1437V11.3113C181.691 9.49292 183.163 8.02832 184.944 8.02832H197.268C199.049 8.02832 200.521 9.49032 200.521 11.3113V13.8191H196.711V11.855H185.506V16.5792H197.271C198.575 16.5792 199.714 17.3726 200.212 18.5016C200.397 18.9205 200.524 19.3783 200.524 19.8596V25.7128C200.524 27.5104 199.075 28.9724 197.294 28.9958H184.929C183.168 28.975 181.697 27.5104 181.697 25.7128V23.1842H185.506V25.1483H186.066H186.063Z" fill="white"/>
<path d="M219.999 28.9932H202.188V8.02832H219.999V11.8524H205.997V16.5766H218.156V20.4215H205.997V25.1457H219.999V28.9932Z" fill="white"/>
<path d="M30.5769 8.69336L30.5383 8.71677L22.2022 13.3863L21.3723 11.7708L19.7148 17.0413L24.9783 18.7973L24.0298 16.9503L28.8035 14.3931V25.2644L25.1072 27.2545L25.2438 25.7535L25.0763 25.9616L20.733 31.3309L20.6892 31.3882L22.7796 32.3663L23.6406 32.7721L24.5608 33.2039L24.6484 32.231L25.0763 32.0021L32.4535 28.0323V9.92903L30.5769 8.69336Z" fill="white"/>
<path d="M17.02 21.2065L13.0582 25.1139H14.86L14.8239 31.0867L5.34341 25.1997L5.33825 20.8996L6.89256 21.6514L3.12666 15.1895L0 18.3164L1.28366 18.9381V27.6034L16.2107 36.7708L19.0074 35.2646L19.0899 25.1139H20.8942L17.02 21.2065Z" fill="white"/>
<path d="M9.19392 18.8989L14.3569 17.0493L12.5603 11.758L11.8334 13.3033L7.52105 10.6628L17.1613 5.06195L21.0252 7.43185L19.7828 8.6181L26.6315 7.83767L24.8581 3.77425L24.0075 4.58589L17.1278 0.228516L1.2832 9.56501V11.7424L10.0368 17.1169L9.19392 18.8989Z" fill="white"/>
</g>
<defs>
<clipPath id="clip0_409_4609">
<rect width="220" height="37" fill="white"/>
</clipPath>
</defs>
</svg>
