<svg width="198" height="34" viewBox="0 0 198 34" fill="none" xmlns="http://www.w3.org/2000/svg">
<g clip-path="url(#clip0_409_4252)">
<path d="M60.8662 26.6418H44.8359V7.37679H60.8662V10.8908H48.2647V15.2319H59.2075V18.7651H48.2647V23.1062H60.8662V26.6418Z" fill="#262626"/>
<path d="M62.3711 26.6421V7.37708H65.7999L71.4301 21.7822L77.0233 7.41532L77.0419 7.37708H80.4521V26.6421H77.021V16.8649L73.2744 26.5082L73.2188 26.6421H69.6392L69.5835 26.5082L65.7999 16.8267V26.6421H62.3711Z" fill="#262626"/>
<path d="M85.8974 23.1089H95.4784V18.7678H84.8906C83.7167 18.7678 82.7099 18.0387 82.2436 17.0012C82.0766 16.6355 81.9629 16.1956 81.9629 15.7534V10.3939C81.9629 8.72292 83.2875 7.37708 84.8906 7.37708H95.9818C97.5848 7.37708 98.9095 8.72053 98.9095 10.3939V12.6983H95.4807V10.8935H85.3963V15.2346H95.9841C97.158 15.2346 98.1833 15.9637 98.6311 17.0012C98.7981 17.3861 98.9118 17.8068 98.9118 18.249V23.6277C98.9118 25.2795 97.608 26.6229 96.005 26.6445H84.8766C83.2922 26.6253 81.9675 25.2795 81.9675 23.6277V21.3041H85.3963V23.1089H85.8997H85.8974Z" fill="#262626"/>
<path d="M111.657 26.6421H108.229V7.37708H111.657V15.2322H121.742V7.37708H125.152V26.6421H121.742V18.7678H111.657V26.6421Z" fill="#262626"/>
<path d="M143.59 10.3915V23.6253C143.59 25.2771 142.265 26.6421 140.662 26.6421H129.59C127.987 26.6421 126.662 25.2771 126.662 23.6253V10.3915C126.662 8.72053 127.987 7.37468 129.59 7.37468H140.662C142.265 7.37468 143.59 8.71814 143.59 10.3915ZM140.159 10.8911H130.075V23.1065H140.159V10.8911Z" fill="#262626"/>
<path d="M158.591 18.1152V7.37708H162.02V23.6277C162.02 25.2795 160.695 26.6445 159.092 26.6445H148.019C146.398 26.6445 145.092 25.2795 145.092 23.6277V7.37708H148.502V23.1089H158.586V18.1152H158.591Z" fill="#262626"/>
<path d="M167.456 23.1089H177.037V18.7678H166.449C165.275 18.7678 164.268 18.0387 163.802 17.0012C163.635 16.6355 163.521 16.1956 163.521 15.7534V10.3939C163.521 8.72292 164.846 7.37708 166.449 7.37708H177.54C179.143 7.37708 180.468 8.72053 180.468 10.3939V12.6983H177.039V10.8935H166.955V15.2346H177.543C178.717 15.2346 179.742 15.9637 180.19 17.0012C180.357 17.3861 180.47 17.8068 180.47 18.249V23.6277C180.47 25.2795 179.167 26.6229 177.564 26.6445H166.435C164.851 26.6253 163.526 25.2795 163.526 23.6277V21.3041H166.955V23.1089H167.458H167.456Z" fill="#262626"/>
<path d="M198.001 26.6421H181.971V7.37708H198.001V10.8911H185.399V15.2322H196.342V18.7654H185.399V23.1065H198.001V26.6421Z" fill="#262626"/>
<path d="M27.52 7.98903L27.4852 8.01054L19.9828 12.3015L19.2358 10.817L17.7441 15.6601L22.4813 17.2737L21.6276 15.5765L25.924 13.2266V23.2165L22.5973 25.0452L22.7202 23.6659L22.5694 23.8571L18.6605 28.7911L18.621 28.8437L20.5025 29.7425L21.2773 30.1154L22.1055 30.5123L22.1844 29.6182L22.5694 29.4079L29.2089 25.76V9.12451L27.52 7.98903Z" fill="#279EFF"/>
<path d="M15.318 19.4873L11.7524 23.0778H13.374L13.3415 28.5664L4.80907 23.1567L4.80443 19.2052L6.2033 19.8961L2.81399 13.9581L0 16.8315L1.15529 17.4028V25.3655L14.5896 33.7896L17.1066 32.4055L17.1809 23.0778H18.8048L15.318 19.4873Z" fill="#279EFF"/>
<path d="M8.2759 17.3669L12.9226 15.6673L11.3056 10.805L10.6514 12.225L6.77031 9.79863L15.4466 4.6519L18.924 6.82964L17.8059 7.9197L23.9697 7.20255L22.3737 3.4686L21.6081 4.21444L15.4164 0.210358L1.15625 8.78984V10.7907L9.03449 15.7294L8.2759 17.3669Z" fill="#279EFF"/>
</g>
<defs>
<clipPath id="clip0_409_4252">
<rect width="198" height="34" fill="white"/>
</clipPath>
</defs>
</svg>
