<svg width="113" height="17" viewBox="0 0 113 17" fill="none" xmlns="http://www.w3.org/2000/svg">
<g opacity="0.5" clip-path="url(#clip0_409_4651)">
<path d="M13.7003 11.3962V7.19445C13.7003 4.87387 11.8603 2.99268 9.59054 2.99268H0V12.7979C0 15.1184 1.84001 16.9996 4.10979 16.9996H13.7003V13.4979H4.79527C4.03893 13.4979 3.42508 12.8711 3.42508 12.097V11.397H13.7003V11.3962ZM3.42508 6.49441H8.90506C9.6614 6.49441 10.2752 7.12121 10.2752 7.89527V8.5953H3.42508V6.49441Z" fill="white"/>
<path d="M106.251 11.3962V7.19445C106.251 4.87387 104.411 2.99268 102.141 2.99268H92.5508V12.7979C92.5508 15.1184 94.3908 16.9996 96.6606 16.9996H106.251V13.4979H97.3461C96.5897 13.4979 95.9759 12.8711 95.9759 12.097V11.397H106.251V11.3962ZM95.9759 6.49441H101.456C102.212 6.49441 102.826 7.12121 102.826 7.89527V8.5953H95.9759V6.49441Z" fill="white"/>
<path d="M29.1261 7.19445V16.9996H25.701V7.89527C25.701 7.122 25.0879 6.49441 24.3308 6.49441H18.8509V16.9996H15.4258V2.99268H25.0163C27.2861 2.99268 29.1261 4.87387 29.1261 7.19445Z" fill="white"/>
<path d="M50.3871 2.99268H59.9777V6.49441H51.0726C50.3163 6.49441 49.7024 7.12121 49.7024 7.89527V13.4979H59.9777V16.9996H46.2773V7.19445C46.2773 4.87387 48.1174 2.99268 50.3871 2.99268Z" fill="white"/>
<path d="M44.5499 7.19445V2.99268H41.1249V6.49441C41.1249 10.3623 38.0579 13.4979 34.2747 13.4979V2.99268H30.8496V16.9996H34.9594C40.2561 16.9996 44.5499 12.6097 44.5499 7.19445Z" fill="white"/>
<path d="M65.811 2.99268C63.7746 2.99268 62.084 4.50692 61.7582 6.49441C61.7204 6.72198 61.7012 6.95664 61.7012 7.19523V17.0004H71.2917C73.3281 17.0004 75.0195 15.4854 75.3445 13.4979C75.3822 13.2703 75.4015 13.0364 75.4015 12.7979V2.99268H65.811ZM71.9764 12.0978C71.9764 12.8711 71.3626 13.4979 70.6062 13.4979H65.1255V7.89527C65.1255 7.122 65.7393 6.49441 66.4957 6.49441H71.9764V12.0978Z" fill="white"/>
<path d="M86.7155 2.99268H77.125V16.9996H86.7155C88.9853 16.9996 90.8253 15.1184 90.8253 12.7979V7.19445C90.8253 4.87387 88.9853 2.99268 86.7155 2.99268ZM87.4003 12.0978C87.4003 12.8711 86.7872 13.4979 86.0308 13.4979H80.5501V6.49441H86.0308C86.7872 6.49441 87.4003 7.122 87.4003 7.89527V12.097V12.0978Z" fill="white"/>
<path d="M113.001 2.97415C113.001 4.66085 111.706 5.98453 110.02 5.98453C108.334 5.98453 107.021 4.66085 107.021 2.97415C107.021 1.28746 108.352 0 110.02 0C111.687 0 113.001 1.32368 113.001 2.97415ZM107.767 2.97415C107.767 4.29784 108.725 5.34985 110.038 5.34985C111.35 5.34985 112.255 4.29784 112.255 2.99226C112.255 1.68669 111.315 0.598453 110.02 0.598453C108.725 0.598453 107.767 1.66858 107.767 2.97415ZM109.559 4.53407H108.885V1.55991C109.151 1.50558 109.523 1.46936 110.002 1.46936C110.552 1.46936 110.8 1.55991 111.013 1.68669C111.173 1.81347 111.297 2.0497 111.297 2.33948C111.297 2.66626 111.049 2.91982 110.694 3.02849V3.06471C110.978 3.17337 111.137 3.3915 111.226 3.78994C111.315 4.2435 111.368 4.42461 111.439 4.53328H110.712C110.623 4.42461 110.57 4.15216 110.481 3.80805C110.428 3.48126 110.251 3.33637 109.878 3.33637H109.559V4.53328V4.53407ZM109.576 2.84738H109.896C110.269 2.84738 110.57 2.7206 110.57 2.41192C110.57 2.13947 110.375 1.95836 109.949 1.95836C109.772 1.95836 109.647 1.97647 109.576 1.99458V2.84738Z" fill="white"/>
</g>
<defs>
<clipPath id="clip0_409_4651">
<rect width="113" height="17" fill="white"/>
</clipPath>
</defs>
</svg>
