<svg width="127" height="127" viewBox="0 0 127 127" fill="none" xmlns="http://www.w3.org/2000/svg">
<path d="M123.537 33.2315C122.094 27.8339 117.843 23.5821 112.445 22.1393C102.662 19.5171 63.4283 19.5171 63.4283 19.5171C63.4283 19.5171 24.1949 19.5171 14.4117 22.1393C9.01401 23.5821 4.76224 27.8339 3.31942 33.2315C0.697266 43.0148 0.697266 63.4289 0.697266 63.4289C0.697266 63.4289 0.697266 83.8429 3.31942 93.6262C4.76224 99.0238 9.01401 103.276 14.4117 104.718C24.1949 107.341 63.4283 107.341 63.4283 107.341C63.4283 107.341 102.662 107.341 112.445 104.718C117.843 103.276 122.094 99.0238 123.537 93.6262C126.159 83.8429 126.159 63.4289 126.159 63.4289C126.159 63.4289 126.159 43.0148 123.537 33.2315Z" fill="#FF0000"/>
<path d="M50.8828 82.2482L83.4751 63.4289L50.8828 44.6096V82.2482Z" fill="white"/>
</svg>
